<mxfile host="app.diagrams.net" modified="2021-05-17T14:13:42.585Z" agent="5.0 (Windows NT 10.0; Win64; x64) AppleWebKit/537.36 (KHTML, like Gecko) Chrome/90.0.4430.72 Safari/537.36" etag="fBrMCbj_Qswmx2wulNrt" version="14.6.13" type="github">
  <diagram id="eCkq-dspTMnzTCrt1PQh" name="第 1 页">
    <mxGraphModel dx="868" dy="482" grid="1" gridSize="10" guides="1" tooltips="1" connect="1" arrows="1" fold="1" page="1" pageScale="1" pageWidth="827" pageHeight="1169" math="0" shadow="0">
      <root>
        <mxCell id="0" />
        <mxCell id="1" parent="0" />
        <mxCell id="kLVzG7IMKGUTuAJzPrR5-15" style="edgeStyle=orthogonalEdgeStyle;rounded=0;orthogonalLoop=1;jettySize=auto;html=1;exitX=0.5;exitY=1;exitDx=0;exitDy=0;entryX=0.5;entryY=0;entryDx=0;entryDy=0;" edge="1" parent="1" source="kLVzG7IMKGUTuAJzPrR5-1" target="kLVzG7IMKGUTuAJzPrR5-2">
          <mxGeometry relative="1" as="geometry" />
        </mxCell>
        <mxCell id="kLVzG7IMKGUTuAJzPrR5-1" value="&lt;font style=&quot;font-size: 14px&quot;&gt;开始&lt;/font&gt;" style="ellipse;whiteSpace=wrap;html=1;" vertex="1" parent="1">
          <mxGeometry x="328.5" y="30" width="70" height="40" as="geometry" />
        </mxCell>
        <mxCell id="kLVzG7IMKGUTuAJzPrR5-16" style="edgeStyle=orthogonalEdgeStyle;rounded=0;orthogonalLoop=1;jettySize=auto;html=1;exitX=0.5;exitY=1;exitDx=0;exitDy=0;entryX=0.5;entryY=0;entryDx=0;entryDy=0;" edge="1" parent="1" source="kLVzG7IMKGUTuAJzPrR5-2" target="kLVzG7IMKGUTuAJzPrR5-4">
          <mxGeometry relative="1" as="geometry" />
        </mxCell>
        <mxCell id="kLVzG7IMKGUTuAJzPrR5-2" value="&lt;font style=&quot;font-size: 14px&quot;&gt;挑选商品&lt;/font&gt;" style="rounded=0;whiteSpace=wrap;html=1;" vertex="1" parent="1">
          <mxGeometry x="313" y="90" width="101" height="40" as="geometry" />
        </mxCell>
        <mxCell id="kLVzG7IMKGUTuAJzPrR5-17" style="edgeStyle=orthogonalEdgeStyle;rounded=0;orthogonalLoop=1;jettySize=auto;html=1;exitX=0.5;exitY=1;exitDx=0;exitDy=0;entryX=0.5;entryY=0;entryDx=0;entryDy=0;" edge="1" parent="1" source="kLVzG7IMKGUTuAJzPrR5-4" target="kLVzG7IMKGUTuAJzPrR5-11">
          <mxGeometry relative="1" as="geometry" />
        </mxCell>
        <mxCell id="kLVzG7IMKGUTuAJzPrR5-4" value="&lt;font style=&quot;font-size: 14px&quot;&gt;购买下单&lt;/font&gt;" style="rounded=0;whiteSpace=wrap;html=1;" vertex="1" parent="1">
          <mxGeometry x="313" y="150" width="101" height="40" as="geometry" />
        </mxCell>
        <mxCell id="kLVzG7IMKGUTuAJzPrR5-19" style="edgeStyle=orthogonalEdgeStyle;rounded=0;orthogonalLoop=1;jettySize=auto;html=1;exitX=0.5;exitY=1;exitDx=0;exitDy=0;entryX=0.5;entryY=0;entryDx=0;entryDy=0;" edge="1" parent="1" source="kLVzG7IMKGUTuAJzPrR5-5" target="kLVzG7IMKGUTuAJzPrR5-6">
          <mxGeometry relative="1" as="geometry" />
        </mxCell>
        <mxCell id="kLVzG7IMKGUTuAJzPrR5-5" value="&lt;font style=&quot;font-size: 14px&quot;&gt;确认收货&lt;/font&gt;" style="rounded=0;whiteSpace=wrap;html=1;" vertex="1" parent="1">
          <mxGeometry x="313" y="310" width="101" height="40" as="geometry" />
        </mxCell>
        <mxCell id="kLVzG7IMKGUTuAJzPrR5-20" style="edgeStyle=orthogonalEdgeStyle;rounded=0;orthogonalLoop=1;jettySize=auto;html=1;exitX=0.5;exitY=1;exitDx=0;exitDy=0;entryX=0.5;entryY=0;entryDx=0;entryDy=0;" edge="1" parent="1" source="kLVzG7IMKGUTuAJzPrR5-6" target="kLVzG7IMKGUTuAJzPrR5-10">
          <mxGeometry relative="1" as="geometry" />
        </mxCell>
        <mxCell id="kLVzG7IMKGUTuAJzPrR5-6" value="&lt;font style=&quot;font-size: 14px&quot;&gt;进行商品的评价&lt;/font&gt;" style="rounded=0;whiteSpace=wrap;html=1;" vertex="1" parent="1">
          <mxGeometry x="313" y="370" width="101" height="40" as="geometry" />
        </mxCell>
        <mxCell id="kLVzG7IMKGUTuAJzPrR5-8" value="&lt;font style=&quot;font-size: 14px&quot;&gt;结束&lt;/font&gt;" style="ellipse;whiteSpace=wrap;html=1;" vertex="1" parent="1">
          <mxGeometry x="328.5" y="510" width="70" height="40" as="geometry" />
        </mxCell>
        <mxCell id="kLVzG7IMKGUTuAJzPrR5-21" style="edgeStyle=orthogonalEdgeStyle;rounded=0;orthogonalLoop=1;jettySize=auto;html=1;exitX=0.5;exitY=1;exitDx=0;exitDy=0;" edge="1" parent="1" source="kLVzG7IMKGUTuAJzPrR5-10" target="kLVzG7IMKGUTuAJzPrR5-8">
          <mxGeometry relative="1" as="geometry" />
        </mxCell>
        <mxCell id="kLVzG7IMKGUTuAJzPrR5-10" value="&lt;span style=&quot;font-size: 14px&quot;&gt;商品评价更新&lt;/span&gt;" style="rounded=0;whiteSpace=wrap;html=1;" vertex="1" parent="1">
          <mxGeometry x="313" y="440" width="101" height="40" as="geometry" />
        </mxCell>
        <mxCell id="kLVzG7IMKGUTuAJzPrR5-18" value="是" style="edgeStyle=orthogonalEdgeStyle;rounded=0;orthogonalLoop=1;jettySize=auto;html=1;exitX=0.5;exitY=1;exitDx=0;exitDy=0;entryX=0.5;entryY=0;entryDx=0;entryDy=0;" edge="1" parent="1" source="kLVzG7IMKGUTuAJzPrR5-11" target="kLVzG7IMKGUTuAJzPrR5-5">
          <mxGeometry relative="1" as="geometry" />
        </mxCell>
        <mxCell id="kLVzG7IMKGUTuAJzPrR5-22" value="否" style="edgeStyle=orthogonalEdgeStyle;rounded=0;orthogonalLoop=1;jettySize=auto;html=1;exitX=1;exitY=0.5;exitDx=0;exitDy=0;" edge="1" parent="1" source="kLVzG7IMKGUTuAJzPrR5-11" target="kLVzG7IMKGUTuAJzPrR5-13">
          <mxGeometry relative="1" as="geometry" />
        </mxCell>
        <mxCell id="kLVzG7IMKGUTuAJzPrR5-11" value="&lt;font style=&quot;font-size: 14px&quot;&gt;收到货物后&lt;br&gt;是否满意&lt;/font&gt;" style="rhombus;whiteSpace=wrap;html=1;" vertex="1" parent="1">
          <mxGeometry x="290" y="210" width="147" height="70" as="geometry" />
        </mxCell>
        <mxCell id="kLVzG7IMKGUTuAJzPrR5-23" style="edgeStyle=orthogonalEdgeStyle;rounded=0;orthogonalLoop=1;jettySize=auto;html=1;exitX=0.5;exitY=1;exitDx=0;exitDy=0;entryX=0.5;entryY=0;entryDx=0;entryDy=0;" edge="1" parent="1" source="kLVzG7IMKGUTuAJzPrR5-13" target="kLVzG7IMKGUTuAJzPrR5-14">
          <mxGeometry relative="1" as="geometry" />
        </mxCell>
        <mxCell id="kLVzG7IMKGUTuAJzPrR5-13" value="&lt;font style=&quot;font-size: 14px&quot;&gt;联系卖家&lt;/font&gt;" style="rounded=0;whiteSpace=wrap;html=1;" vertex="1" parent="1">
          <mxGeometry x="470" y="225" width="101" height="40" as="geometry" />
        </mxCell>
        <mxCell id="kLVzG7IMKGUTuAJzPrR5-24" style="edgeStyle=orthogonalEdgeStyle;rounded=0;orthogonalLoop=1;jettySize=auto;html=1;exitX=0.5;exitY=1;exitDx=0;exitDy=0;" edge="1" parent="1" source="kLVzG7IMKGUTuAJzPrR5-14">
          <mxGeometry relative="1" as="geometry">
            <mxPoint x="364" y="490" as="targetPoint" />
            <mxPoint x="514.5" y="410" as="sourcePoint" />
            <Array as="points">
              <mxPoint x="521" y="490" />
            </Array>
          </mxGeometry>
        </mxCell>
        <mxCell id="kLVzG7IMKGUTuAJzPrR5-14" value="&lt;font style=&quot;font-size: 14px&quot;&gt;申请退货&lt;br&gt;或者换货&lt;/font&gt;" style="rounded=0;whiteSpace=wrap;html=1;" vertex="1" parent="1">
          <mxGeometry x="470" y="370" width="101" height="40" as="geometry" />
        </mxCell>
      </root>
    </mxGraphModel>
  </diagram>
</mxfile>
